<svg xmlns="http://www.w3.org/2000/svg" height="40" viewBox="0 -960 960 960" width="40"><path d="M479.667-137.334q-142 0-241.667-100-99.666-99.999-99.666-241.333Q138.334-620 238-721.333q99.667-101.333 241.92-101.333 79.08 0 143.747 32.666 64.667 32.667 114.667 87.334v-120h83.999v298.665H523.667V-608h181.334Q667-666 610-700.334q-57-34.333-130.333-34.333-108.167 0-182.751 74.255-74.583 74.255-74.583 181.667 0 108.412 74.578 182.912t182.737 74.5q81.352 0 148.852-46.5T723-392.667h86.666Q780-279.333 688.166-208.334q-91.833 71-208.499 71Z"/></svg>